<?xml version="1.0" encoding="UTF-8" standalone="no"?>
<!DOCTYPE svg PUBLIC "-//W3C//DTD SVG 1.1//EN" "http://www.w3.org/Graphics/SVG/1.1/DTD/svg11.dtd">
<svg width="100%" height="100%" viewBox="0 0 2481 3508" version="1.1" xmlns="http://www.w3.org/2000/svg" xmlns:xlink="http://www.w3.org/1999/xlink" xml:space="preserve" xmlns:serif="http://www.serif.com/" style="fill-rule:evenodd;clip-rule:evenodd;stroke-linecap:round;stroke-linejoin:round;stroke-miterlimit:1.5;">
    <g id="Tergopleural-Pleural-promotor" serif:id="Tergopleural/Pleural promotor" transform="matrix(0.62895,0,0,0.62895,-896.038,-663.784)">
        <path d="M1915.49,1472C1916.34,1469.19 1922.71,1453.39 1924.47,1448.97C1928.44,1438.94 1932.25,1428.9 1936.35,1418.93C1941.3,1406.9 1946.06,1393.9 1949.24,1381.25C1952.83,1367.02 1955.11,1351.7 1960.93,1338.17C1967.02,1323.99 1978.45,1310.59 1989.59,1300.12C1997.14,1293.02 2005.2,1286.6 2013.88,1281.01C2016.36,1279.42 2021.74,1275.81 2024.81,1278.01C2029.41,1281.32 2021.3,1302.67 2019.28,1307.51C2015.45,1316.67 2011.84,1326.06 2008.32,1335.41C1996.66,1366.36 1986.5,1398.2 1972.92,1428.36C1965.41,1445.04 1956.24,1461.07 1948.42,1477.62C1943.32,1488.4 1937.06,1498 1930.65,1507.96C1927.67,1512.6 1921.97,1516.36 1917.04,1512.26C1907.43,1504.24 1912.45,1482.13 1915.49,1472Z" style="fill:rgb(34,128,184);stroke:black;stroke-width:6.62px;"/>
    </g>
    <g id="Pleural-remotor-abductor" serif:id="Pleural remotor/abductor" transform="matrix(0.62895,0,0,0.62895,-903.038,-663.784)">
        <path d="M1632.6,1509.12C1632.37,1507.38 1635.05,1504.13 1635.73,1503.88C1639.32,1502.53 1643.15,1501.97 1646.97,1501.7C1658.3,1500.89 1677.68,1500.51 1688.76,1501.73C1699.16,1502.88 1709.71,1502.5 1720.16,1503.2C1737.4,1504.34 1754.95,1507.43 1771.95,1508.17C1778.32,1508.45 1784.74,1507.13 1791.13,1507.93C1807.11,1509.93 1823.18,1513.59 1838.62,1517.74C1843.93,1519.17 1849.33,1519.64 1854.36,1522.13C1859.53,1524.7 1867.09,1529.55 1869.38,1535.18C1871.88,1541.35 1867.21,1551.41 1861.13,1553.57C1857.78,1554.76 1853.72,1554.87 1850.2,1555C1815.95,1556.31 1781.67,1556.83 1747.45,1555.52C1729.13,1554.81 1708.43,1557.69 1690.4,1553.47C1674.52,1549.75 1657.84,1545.08 1646.73,1532.49C1642.29,1527.47 1637.97,1522.06 1634.87,1516.07C1633.85,1514.09 1632.9,1511.34 1632.6,1509.12Z" style="fill:rgb(123,45,186);stroke:black;stroke-width:6.62px;"/>
    </g>
    <g id="Tergotr." transform="matrix(0.62895,0,0,0.62895,-903.038,-663.784)">
        <path d="M1871.92,1476.8C1870.9,1457.61 1866.78,1403.89 1866.19,1396.96C1864.42,1376.2 1863.15,1340.39 1864.67,1317.8C1865.06,1311.94 1866.18,1305.04 1867.42,1299.3C1867.69,1298.06 1868.23,1294.05 1870.24,1294.6C1875.07,1295.92 1876.77,1305.32 1878.17,1309.11C1883.92,1324.56 1886.01,1342.83 1886.01,1359.22C1886.01,1374.34 1885.25,1389.86 1886.29,1405.03C1887.56,1423.59 1890.23,1442 1890.82,1460.65C1891.19,1472.41 1889.88,1484.12 1890.27,1495.87C1890.75,1510.24 1895.28,1543.09 1896.43,1557.46C1896.78,1561.85 1894.85,1600.7 1897.56,1614.17C1897.93,1616.03 1898.99,1629.79 1897.11,1630.42C1895.94,1630.81 1889.92,1618.6 1889.53,1617.46C1886.48,1608.76 1877.49,1590.59 1877.24,1578.27C1876.93,1562.57 1876.3,1546.7 1875.73,1542.24C1875.2,1537.97 1873.12,1519.04 1872.84,1508.35C1872.56,1497.87 1872.48,1487.29 1871.92,1476.8Z" style="fill:rgb(239,233,82);stroke:black;stroke-width:6.62px;"/>
    </g>
    <g id="Sternotrochanter" transform="matrix(0.62736,0.0446915,-0.0446915,0.62736,-818.292,-745.527)">
        <path d="M1871.92,1476.8C1870.9,1457.61 1866.78,1403.89 1866.19,1396.96C1864.42,1376.2 1863.15,1340.39 1864.67,1317.8C1865.06,1311.94 1866.18,1305.04 1867.42,1299.3C1867.69,1298.06 1868.23,1294.05 1870.24,1294.6C1875.07,1295.92 1876.77,1305.32 1878.17,1309.11C1883.92,1324.56 1886.01,1342.83 1886.01,1359.22C1886.01,1374.34 1885.25,1389.86 1886.29,1405.03C1887.56,1423.59 1884.15,1430.02 1884.75,1448.67C1885.12,1460.42 1887.02,1474.36 1887.41,1486.11C1887.89,1500.48 1887.12,1510.36 1888.27,1524.73C1888.62,1529.12 1885.03,1556.93 1883.15,1557.55C1881.98,1557.94 1880.69,1619.69 1880.29,1618.56C1877.25,1609.86 1877.49,1590.59 1877.24,1578.27C1876.93,1562.57 1876.3,1546.7 1875.73,1542.24C1875.2,1537.97 1873.12,1519.04 1872.84,1508.35C1872.56,1497.87 1872.48,1487.29 1871.92,1476.8Z" style="fill:rgb(204,247,80);stroke:black;stroke-width:6.62px;"/>
    </g>
    <g id="Sternal-posterior-rotator" serif:id="Sternal posterior rotator" transform="matrix(0.62895,0,0,0.62895,-903.038,-663.784)">
        <path d="M1816.44,1500.95C1803.02,1497.37 1782.32,1481.35 1775.57,1475.94C1765.96,1468.24 1748.35,1452.24 1734.6,1435.81C1732.22,1432.96 1720.71,1417.39 1718.76,1414.26C1712.83,1404.77 1706.99,1395.78 1701.57,1385.89C1694.37,1372.74 1687.67,1328.39 1703.26,1318.46C1719.65,1308 1748.17,1315.06 1766.59,1323.3C1780.2,1329.39 1809.91,1369.44 1818.9,1381.33C1822.7,1386.36 1851.47,1430.36 1854,1444.57C1855.69,1454.12 1861.51,1482.92 1850.76,1500.95C1843.52,1513.09 1825.69,1503.41 1816.44,1500.95Z" style="fill:rgb(174,34,186);stroke:black;stroke-width:6.62px;"/>
    </g>
    <g id="Sternal-anterior-rotator" serif:id="Sternal anterior rotator" transform="matrix(0.62895,0,0,0.62895,-903.038,-663.784)">
        <path d="M1956.25,1560.22C1949.2,1558.92 1927.44,1547.43 1931.31,1528.61C1935.83,1506.64 1966.15,1510.28 1985.65,1506.93C2022.4,1500.63 2105.78,1504.47 2141.82,1514.02C2191.66,1527.21 2197.2,1543.95 2197.88,1556.28C2198.93,1575.35 2165.32,1587.26 2153.85,1587.16C2136.79,1587 2049.25,1575.13 2031.1,1572.2C2006.14,1568.19 1981.14,1564.8 1956.25,1560.22Z" style="fill:rgb(51,192,208);stroke:black;stroke-width:6.62px;"/>
    </g>
    <g id="Sternal-adductor" serif:id="Sternal adductor" transform="matrix(0.62895,0,0,0.62895,-903.038,-663.784)">
        <path d="M1924.26,1584.06C1928.08,1567.17 1954.76,1567.89 1967.39,1571.11C1972.4,1572.39 2003.54,1587.56 2015.63,1590.77C2023.97,1592.98 2058.03,1599.57 2066.77,1601.16C2082.15,1603.95 2098.03,1603.88 2113.47,1605.99C2127.77,1607.96 2145.65,1604.28 2158.7,1608.58C2162.45,1609.82 2169.96,1610.93 2170.62,1616.21C2173.77,1641.42 2133.68,1636.78 2118.35,1635.25C2109.82,1634.4 2101.51,1631.83 2092.99,1630.83C2051.91,1625.96 2011.9,1618.12 1971.51,1608.92C1957.75,1605.79 1928.73,1601.17 1924.26,1584.06Z" style="fill:rgb(20,94,103);stroke:black;stroke-width:6.62px;"/>
    </g>
    <g id="Tr-extensor" serif:id="Tr extensor" transform="matrix(0.62895,0,0,0.62895,-903.038,-663.784)">
        <path d="M1906.15,1696.16C1904.27,1690.01 1901.77,1655.97 1900.51,1648.88C1898.45,1637.27 1898.57,1625.34 1897.18,1613.62C1895.94,1603.17 1890.58,1563.31 1894.91,1558.65C1898.34,1554.95 1905,1560.84 1908,1563.11C1911.78,1565.98 1925.49,1586.77 1928.31,1595.37C1936.42,1620.07 1944.74,1646.09 1949.48,1671.73C1951.52,1682.76 1951.61,1693.81 1952.85,1704.88C1954.73,1721.73 1957.3,1739.38 1943.21,1752.13C1941.93,1753.29 1937.48,1757.15 1935.8,1757.71C1916.25,1764.19 1913.35,1734.84 1910.92,1722.52C1910.14,1718.56 1907.6,1700.91 1906.15,1696.16Z" style="fill:rgb(250,164,0);stroke:black;stroke-width:6.62px;"/>
    </g>
    <g id="Tr-flexor" serif:id="Tr flexor" transform="matrix(0.62895,0,0,0.62895,-903.038,-663.784)">
        <path d="M1889.93,1607.93C1890.36,1608.17 1882.75,1582.61 1874.56,1571.06C1871.9,1567.3 1861.93,1560.37 1858.24,1557.76C1848.4,1550.82 1813.71,1556.19 1812.61,1562.43C1811.53,1568.48 1813.69,1574.86 1814.36,1580.82C1815.12,1587.67 1814.9,1594.75 1815.42,1601.64C1816.36,1614.03 1815.64,1626.95 1817.93,1639.14C1824.1,1671.91 1836.26,1698.99 1850.79,1728.58C1859.17,1745.66 1870.55,1775.53 1892.64,1777.22C1895.02,1777.4 1898.85,1777.95 1901.03,1776.78C1907.89,1773.1 1911.78,1748.08 1911.78,1740.81C1911.78,1727.66 1907.54,1710.37 1905.05,1697.28C1900.44,1673.06 1894.22,1631.95 1889.93,1607.93Z" style="fill:rgb(49,30,226);stroke:black;stroke-width:6.62px;"/>
    </g>
    <g id="Fe-reductor" serif:id="Fe reductor" transform="matrix(0.62895,0,0,0.62895,-903.038,-663.784)">
        <path d="M1880.31,1810.33C1879.66,1808.68 1881.36,1804.23 1883.19,1802.65C1889.39,1797.33 1895.47,1791.84 1901.85,1786.68C1907,1782.51 1912.29,1778.47 1917.49,1774.35C1922.42,1770.43 1926.31,1768.3 1931.82,1765.42C1933.39,1764.6 1936.98,1762.67 1938.76,1764.16C1940.3,1765.45 1939.32,1770.71 1939.27,1772.34C1939.01,1781.33 1937.25,1787.8 1934.12,1796.15C1929.89,1807.42 1923.66,1819.04 1916.97,1829.02C1915.3,1831.5 1910.75,1837.14 1907.45,1836.82C1900.01,1836.08 1895.67,1830.59 1891.09,1825.08C1886.74,1819.85 1881.75,1813.98 1880.31,1810.33Z" style="fill:rgb(248,36,1);stroke:black;stroke-width:6.62px;"/>
    </g>
    <g id="Ti-extensor" serif:id="Ti extensor" transform="matrix(0.62895,0,0,0.62895,-903.038,-663.784)">
        <path d="M1879.96,1836.68C1880.4,1835.45 1885.03,1829.57 1883.64,1826.09C1881.36,1820.38 1874.03,1813.88 1868.1,1812.5C1858.66,1810.28 1847.48,1817.79 1839.24,1821.59C1810.63,1834.79 1786.15,1855.02 1762.05,1875.03C1742.57,1891.22 1723.19,1906.63 1705.42,1924.83C1691.1,1939.49 1672.32,1964.77 1687.62,1985.05C1690.45,1988.8 1695.23,1989.6 1698.7,1987.94C1707.11,1983.92 1715.32,1977.65 1722.61,1971.8C1734.76,1962.06 1747.29,1951.91 1759.1,1941.79C1777.28,1926.19 1786.95,1918.63 1806.47,1904.71C1814.66,1898.87 1834.64,1882.45 1842.67,1876.37C1853.6,1868.08 1860.4,1861.36 1869.44,1851.05C1873.3,1846.66 1877.94,1842.31 1879.96,1836.68Z" style="fill:rgb(251,199,0);stroke:black;stroke-width:6.62px;"/>
    </g>
    <g id="Ti-flexor" serif:id="Ti flexor" transform="matrix(0.62895,0,0,0.62895,-903.038,-663.784)">
        <path d="M1847.69,1901.6C1839.3,1894.27 1829.32,1889.95 1827.53,1891.07C1822.15,1894.45 1805.45,1907.92 1800.43,1911.85C1786.58,1922.72 1750.35,1952.7 1743.43,1957.83C1736.25,1963.16 1707.17,1986.92 1701.73,1991.54C1694.83,1997.38 1690.45,2008.32 1686.35,2016.15C1682.74,2023.04 1677.61,2029.33 1674.49,2036.38C1670.91,2044.47 1662.56,2059.32 1664.3,2061.06C1666.1,2062.87 1693.66,2046.87 1706.31,2040.88C1731.04,2029.18 1755.09,2013.33 1777.07,1997.11C1785.51,1990.88 1811.84,1968.39 1818.62,1961.15C1821.91,1957.64 1841.79,1935.02 1848.14,1925.89C1850.8,1922.07 1854.89,1914.24 1854.01,1909.47C1853.26,1905.32 1850.57,1904.12 1847.69,1901.6Z" style="fill:rgb(52,86,226);stroke:black;stroke-width:6.62px;"/>
    </g>
    <g id="LTM" transform="matrix(0.62895,0,0,0.62895,-903.038,-663.784)">
        <path d="M1835.53,1880.11C1843.11,1868.11 1858.61,1845.25 1871.99,1837.22C1877.44,1833.95 1891.46,1832.03 1893.33,1840.94C1894.86,1848.25 1888.95,1856.55 1886.42,1863.04C1882.93,1872.01 1869.03,1895.62 1866.45,1900.34C1861.99,1908.49 1854.94,1915.97 1849.06,1923.19C1843.63,1929.88 1828.74,1927.38 1826.18,1919.11C1825.25,1916.12 1830.1,1888.69 1835.53,1880.11Z" style="fill:rgb(240,234,163);stroke:black;stroke-width:6.62px;"/>
    </g>
    <g id="Ti-acc.-flexor" serif:id="Ti acc. flexor" transform="matrix(0.62895,0,0,0.62895,-903.038,-663.784)">
        <path d="M1687.34,1980.42C1685.11,1978.21 1676.63,1975.61 1674.66,1975.92C1671.28,1976.47 1667.77,1978.8 1665.62,1981.44C1659.37,1989.18 1656.92,1998.62 1650.16,2006.21C1639.66,2017.99 1623.19,2029.3 1619.68,2045.62C1618.7,2050.17 1618.7,2054.99 1622.5,2058.29C1625.09,2060.53 1647.79,2062.97 1654.9,2058.8C1673.78,2047.74 1695.95,2014.25 1691.57,1990.98C1691.01,1988.02 1689.54,1982.59 1687.34,1980.42Z" style="fill:rgb(34,148,77);stroke:black;stroke-width:6.62px;"/>
    </g>
    <g id="Tr-reductor" serif:id="Tr reductor" transform="matrix(0.62895,0,0,0.62895,-903.038,-663.784)">
        <path d="M1889.93,1773.95C1889.95,1773.87 1885.16,1766.06 1884.67,1764.89C1880.95,1756.01 1877.43,1746.42 1876.11,1736.79C1874.42,1724.45 1878.72,1709.93 1882.37,1698.3C1884.57,1691.29 1883.05,1685.31 1891.37,1680.73C1897.61,1677.29 1913.56,1680.01 1920.27,1681.07C1926.8,1682.09 1936.95,1682.42 1942.61,1686.62C1944.15,1687.76 1942.32,1691.31 1941.75,1692.44C1939.06,1697.79 1937,1703.3 1934.43,1708.69C1931.34,1715.17 1925.88,1720.39 1921.95,1726.37C1914.77,1737.33 1909.53,1750.22 1902.47,1761.49C1901.66,1762.78 1892.97,1783.01 1889.93,1773.95Z" style="fill:rgb(44,181,77);stroke:black;stroke-width:6.62px;"/>
    </g>
    <g id="LTM1" serif:id="LTM" transform="matrix(0.62895,0,0,0.62895,-903.038,-663.784)">
        <path d="M1615.01,2061.06C1608.66,2060.32 1607.79,2082.21 1607.49,2089.37C1606.39,2115.74 1619.35,2140.36 1630.76,2162.95C1633.55,2168.47 1638.06,2172.53 1640.97,2177.62C1641.62,2178.78 1643.82,2183.12 1645.5,2182.7C1647.25,2182.26 1647.18,2176.63 1647.18,2175.45C1647.18,2168.07 1643.97,2160.72 1642.99,2153.44C1639.73,2129.09 1634.55,2104.01 1629.55,2079.72C1627.86,2071.51 1623.01,2062.01 1615.01,2061.06Z" style="fill:rgb(240,234,163);stroke:black;stroke-width:6.62px;"/>
    </g>
    <g id="Ta-extensor" serif:id="Ta extensor" transform="matrix(0.62895,0,0,0.62895,-903.038,-663.784)">
        <path d="M1634.27,2102.93C1633.81,2100.07 1632.46,2087.03 1634.27,2087.43C1638.08,2088.27 1643.65,2100.54 1645.03,2103.45C1651.28,2116.58 1655.62,2126.7 1661.04,2140.19C1668.61,2159.06 1676.25,2177.97 1683.51,2196.94C1685.89,2203.16 1704.98,2247.09 1711.45,2263.09C1715.28,2272.56 1719.05,2283.36 1721.97,2293.09C1722.64,2295.35 1723.43,2301.58 1720.66,2302.94C1715.51,2305.45 1708.14,2301.61 1704.44,2298.37C1694.74,2289.92 1688.93,2271.93 1683.85,2260.46C1671.14,2231.72 1659.51,2202.24 1647.87,2173.06C1644.17,2163.78 1636.39,2116.35 1634.27,2102.93Z" style="fill:rgb(57,126,226);stroke:black;stroke-width:6.62px;"/>
    </g>
    <g id="Ta-flexor" serif:id="Ta flexor" transform="matrix(0.62895,0,0,0.62895,-903.038,-663.784)">
        <path d="M1648.32,2179.5C1643.31,2175.03 1639.1,2181.1 1638.7,2183.76C1638.24,2186.81 1638.11,2190.03 1638.25,2193.12C1638.65,2201.73 1639.89,2213.72 1642.62,2221.8C1644.49,2227.37 1658.75,2265.25 1660.8,2270.41C1666.81,2285.55 1675.47,2303.75 1684.37,2319.08C1688.09,2325.5 1703.84,2345.69 1705.57,2345.21C1708.34,2344.45 1707.84,2337.1 1707.91,2335.26C1708.26,2324.98 1707.22,2313.32 1704.1,2303.38C1693.1,2268.39 1678.02,2233.17 1661.89,2200.04C1658.89,2193.87 1653.46,2184.09 1648.32,2179.5Z" style="fill:rgb(252,200,126);stroke:black;stroke-width:6.62px;"/>
    </g>
    <g>
        <g transform="matrix(0.62895,0,0,0.62895,-903.038,-663.784)">
            <path d="M1718.01,2306.58C1716.44,2307.75 1711.45,2315.12 1710.73,2318.84C1708.76,2328.95 1707.64,2337.65 1708.18,2347.9C1708.43,2352.59 1706.82,2357.73 1713.2,2358.15C1731.17,2359.35 1730.51,2332.17 1729.04,2320.86C1727.97,2312.59 1729.67,2297.93 1718.01,2306.58Z" style="fill:white;stroke:black;stroke-width:6.62px;"/>
        </g>
        <g transform="matrix(0.62895,0,0,0.62895,-903.038,-663.784)">
            <path d="M1718.38,2373.52C1718.51,2370.61 1720.94,2358.49 1721.89,2357.27C1724.89,2353.42 1725.64,2352.22 1730.79,2351.58C1734.51,2351.12 1741.87,2362.17 1743.4,2365.1C1752.05,2381.7 1753.75,2400.26 1757.39,2418.34C1759.61,2429.41 1764.15,2440.37 1766.94,2451.38C1768.45,2457.31 1779.44,2475.49 1770.59,2479.52C1756.95,2485.72 1746.34,2476.14 1740.86,2464.43C1731.22,2443.81 1726.06,2422.43 1722.44,2399.95C1721.04,2391.22 1718.04,2381.4 1718.38,2373.52Z" style="fill:white;stroke:black;stroke-width:6.62px;"/>
        </g>
        <g transform="matrix(0.62895,0,0,0.62895,-903.038,-663.784)">
            <path d="M1759.56,2482.11C1758.12,2483.13 1755.61,2486.24 1756.05,2489.16C1756.85,2494.43 1775.41,2524.94 1777.73,2528.4C1784.98,2539.2 1795.07,2557.95 1809.62,2555.24C1811.94,2554.8 1814.71,2554.93 1816.57,2553.09C1822.45,2547.28 1814.14,2537.43 1811.1,2532.69C1807.59,2527.2 1788.66,2487.88 1778.11,2477.34C1777.52,2476.75 1776.11,2475.36 1775.16,2475.63C1772.59,2476.37 1762.74,2479.86 1759.56,2482.11Z" style="fill:white;stroke:black;stroke-width:6.62px;"/>
        </g>
        <g transform="matrix(0.62895,0,0,0.62895,-903.038,-663.784)">
            <path d="M1810,2557.11C1809.44,2559.06 1810.31,2562.2 1810.93,2563.21C1813.12,2566.78 1827.88,2582.08 1829.69,2584.3C1836.1,2592.16 1850.52,2605.93 1859.82,2591.18C1863.38,2585.55 1850.11,2572.75 1846.5,2570.05C1836.76,2562.8 1828.45,2546.23 1814.3,2551.49C1811.69,2552.46 1810.56,2555.16 1810,2557.11Z" style="fill:white;stroke:black;stroke-width:6.62px;"/>
        </g>
        <g transform="matrix(0.62895,0,0,0.62895,-903.038,-663.784)">
            <path d="M1855.6,2596.66C1855.96,2599.94 1861.56,2603.79 1863.99,2605.77C1869.97,2610.62 1882.57,2621.36 1891.38,2617.3C1893.54,2616.3 1901.46,2611.94 1902.07,2610.11C1903.21,2606.67 1900.09,2601.11 1897.32,2599.18C1891.38,2595.03 1869.74,2584.3 1862.1,2585.38C1860.94,2585.55 1855.24,2593.38 1855.6,2596.66Z" style="fill:white;stroke:black;stroke-width:6.62px;"/>
        </g>
        <g transform="matrix(0.62895,0,0,0.62895,-903.038,-663.784)">
            <path d="M1904.8,2607.69C1906.61,2606.64 1918.17,2608.44 1921.12,2609.22C1927.8,2611 1933.6,2619.41 1938.53,2623.63C1941.26,2625.98 1951.18,2627.32 1954.85,2627.93C1962.8,2629.24 1965.78,2621.69 1961.41,2615.22C1960.27,2613.53 1955.81,2609.83 1958.46,2608.71C1964.33,2606.24 1971.28,2621.66 1970.18,2626.53C1968.45,2634.13 1961.63,2631.2 1956.88,2634.3C1956.4,2634.61 1957.12,2638.51 1956.36,2639.57C1952.43,2645.04 1944.31,2645.52 1938.22,2644.31C1933.52,2643.37 1929.24,2639.87 1925.33,2637.29C1918.24,2632.61 1905.86,2628.51 1899.49,2622.01C1897.99,2620.48 1895.41,2617.41 1896.67,2614.91C1897.82,2612.64 1902.75,2608.88 1904.8,2607.69Z" style="fill:white;stroke:black;stroke-width:6.62px;"/>
        </g>
    </g>
</svg>
